<?xml version="1.0" encoding="UTF-8" ?>
<!DOCTYPE svg PUBLIC "-//W3C//DTD SVG 1.1//EN" "http://www.w3.org/Graphics/SVG/1.1/DTD/svg11.dtd">
<svg width="1828pt" height="869pt" viewBox="0 0 1828 869" version="1.1" xmlns="http://www.w3.org/2000/svg">
<path fill="#ffffff" opacity="1.00" d=" M 0.73 0.00 L 111.19 0.00 C 118.03 0.64 123.54 6.99 123.00 13.88 C 122.88 56.25 123.26 98.63 122.75 140.99 C 122.75 203.67 122.75 266.35 122.75 329.03 C 122.31 374.67 122.57 420.33 122.50 465.98 C 122.30 480.70 123.67 495.62 128.26 509.68 C 133.65 525.77 143.25 540.85 157.21 550.78 C 173.85 563.12 194.66 567.87 214.94 569.76 C 224.93 570.81 234.98 570.44 245.01 570.50 C 330.95 570.46 416.89 570.56 502.83 570.45 C 502.73 552.10 497.61 533.98 489.23 517.73 C 481.62 503.05 471.59 489.71 460.29 477.67 C 446.70 463.04 431.29 449.94 413.85 440.12 C 381.44 421.56 344.06 413.46 307.06 411.39 C 288.46 410.40 269.83 410.90 251.23 410.17 C 251.27 378.11 251.23 346.04 251.25 313.97 C 250.88 295.51 253.38 277.12 256.92 259.04 C 263.34 224.94 278.98 192.72 301.25 166.17 C 307.67 158.35 314.79 151.15 322.08 144.15 C 342.05 125.82 366.05 112.42 391.00 102.12 C 461.37 72.17 531.76 42.28 602.11 12.28 C 615.29 49.17 628.61 86.01 641.80 122.90 C 566.12 154.77 490.48 186.74 414.80 218.64 C 392.21 227.10 376.34 248.09 369.92 270.84 C 368.00 277.63 366.80 284.70 367.19 291.77 C 404.01 298.67 440.00 310.92 472.58 329.52 C 501.75 346.07 527.95 367.75 549.91 393.07 C 572.45 419.09 590.91 448.58 604.84 480.04 C 617.67 508.94 626.73 539.44 632.61 570.48 C 654.14 570.89 676.16 567.95 695.87 558.86 C 708.74 552.97 720.15 543.99 728.97 532.92 C 741.03 518.00 748.42 499.70 751.84 480.92 C 755.86 460.19 754.51 438.98 754.75 417.99 C 754.88 378.32 754.46 338.64 755.00 298.97 C 754.70 294.05 757.24 289.03 761.63 286.68 C 764.75 284.84 768.48 284.95 771.98 284.98 C 806.23 284.55 840.49 284.78 874.75 284.80 C 874.76 337.86 874.75 390.93 874.75 444.00 C 874.26 473.74 879.19 505.20 897.30 529.65 C 906.04 541.34 917.52 550.97 930.60 557.45 C 948.03 566.16 967.60 569.82 986.96 570.49 C 1001.05 570.51 1015.14 570.49 1029.24 570.49 C 1029.27 479.64 1029.22 388.80 1029.26 297.95 C 1028.80 291.39 1034.44 285.22 1041.06 285.31 C 1076.62 285.17 1112.19 285.28 1147.75 285.25 C 1147.76 422.58 1147.75 559.91 1147.75 697.24 C 1100.17 697.27 1052.58 697.24 1005.00 697.25 C 984.24 697.54 963.41 696.79 942.87 693.63 C 918.12 689.86 893.76 682.41 871.92 670.04 C 849.02 657.33 827.88 640.04 814.70 617.07 C 800.37 642.15 776.42 660.09 751.11 673.08 C 721.74 688.10 688.77 694.78 656.02 696.57 C 642.70 697.83 629.31 697.02 615.96 697.25 C 486.64 697.25 357.31 697.25 227.99 697.25 C 204.79 696.30 181.43 695.26 158.70 690.17 C 140.76 686.22 123.10 680.61 106.61 672.44 C 91.87 665.22 77.57 656.75 65.42 645.62 C 53.22 634.68 42.79 621.82 34.16 607.91 C 24.11 591.39 16.81 573.32 11.28 554.83 C 4.21 530.91 1.31 505.96 0.47 481.10 C 0.36 479.22 0.20 477.35 0.00 475.48 L 0.00 127.07 C 0.97 116.73 0.71 106.34 0.75 95.97 C 0.74 63.98 0.78 31.99 0.73 0.00 Z" />
<path fill="#ffffff" opacity="1.00" d=" M 1364.06 290.69 C 1388.42 286.26 1413.23 284.48 1437.97 284.75 C 1492.65 284.74 1547.34 284.77 1602.02 284.73 C 1605.85 284.76 1609.95 285.50 1612.89 288.17 C 1615.74 290.53 1616.51 294.41 1616.72 297.93 C 1616.64 337.29 1616.19 376.65 1616.00 416.01 C 1615.51 474.01 1615.85 532.03 1615.75 590.03 C 1616.40 598.38 1614.70 606.62 1613.90 614.90 C 1609.69 648.24 1603.90 681.57 1593.50 713.59 C 1587.37 732.62 1578.20 750.54 1567.30 767.26 C 1557.22 782.47 1545.42 796.65 1531.50 808.49 C 1517.34 820.87 1501.32 830.96 1484.70 839.68 C 1453.34 856.03 1418.77 866.11 1383.52 869.00 L 1270.00 869.00 C 1270.02 834.63 1269.96 800.25 1270.03 765.88 C 1269.87 758.99 1276.05 752.87 1282.94 753.08 C 1310.65 753.00 1338.37 753.04 1366.09 752.91 C 1391.81 750.80 1417.36 743.72 1439.71 730.65 C 1453.66 722.61 1465.38 711.18 1475.12 698.46 C 1453.41 698.42 1431.69 698.79 1409.98 698.21 C 1387.38 697.45 1364.78 694.84 1342.80 689.44 C 1323.46 684.95 1304.48 678.41 1287.05 668.81 C 1271.25 660.00 1256.45 649.18 1244.00 636.02 C 1221.13 611.81 1205.30 581.13 1198.25 548.62 C 1191.84 523.99 1189.65 498.33 1191.38 472.96 C 1192.33 456.99 1195.67 441.27 1200.05 425.92 C 1205.85 405.94 1214.62 386.76 1226.72 369.81 C 1245.45 342.63 1272.61 321.87 1302.70 308.66 C 1322.26 300.02 1343.09 294.63 1364.06 290.69 M 1405.09 395.47 C 1385.67 398.08 1366.56 404.48 1350.16 415.31 C 1338.28 423.60 1328.09 434.63 1321.74 447.72 C 1315.76 459.29 1311.74 471.95 1310.54 484.95 C 1309.29 493.36 1311.13 501.83 1313.00 510.01 C 1316.27 521.21 1320.48 532.29 1326.99 542.05 C 1331.47 549.00 1337.32 554.93 1343.46 560.42 C 1356.57 571.43 1372.72 578.16 1389.11 582.64 C 1410.00 587.71 1431.64 588.59 1453.06 588.25 C 1469.88 588.30 1486.71 588.15 1503.54 588.32 C 1503.44 523.22 1503.53 458.11 1503.50 393.01 C 1494.32 393.00 1485.15 393.00 1475.98 393.00 C 1452.34 393.24 1428.56 391.96 1405.09 395.47 Z" />
<path fill="#ffffff" opacity="1.00" d=" M 1704.69 291.60 C 1707.04 287.26 1711.99 284.78 1716.87 285.00 C 1753.76 285.01 1790.65 284.98 1827.54 285.01 C 1827.66 287.69 1827.83 290.36 1828.00 293.04 L 1828.00 626.70 C 1827.28 645.33 1824.91 663.92 1820.24 681.98 C 1805.13 742.10 1766.46 795.75 1714.50 829.48 C 1684.01 849.43 1649.09 862.51 1613.02 867.57 C 1612.97 828.37 1613.02 789.17 1612.99 749.97 C 1612.88 746.48 1613.91 742.89 1616.34 740.30 C 1618.57 737.77 1622.07 737.21 1625.04 735.92 C 1635.32 731.49 1645.19 725.98 1654.05 719.11 C 1679.79 699.48 1697.42 669.52 1701.77 637.41 C 1703.37 626.68 1702.94 615.80 1703.00 604.98 C 1702.99 504.65 1703.01 404.31 1702.99 303.98 C 1703.06 299.83 1702.46 295.33 1704.69 291.60 Z" />
<path fill="#ffffff" opacity="1.00" d=" M 640.48 750.76 C 652.28 749.80 664.17 749.82 675.99 750.64 C 683.37 751.18 690.79 752.07 697.86 754.38 C 703.31 756.20 708.14 760.16 710.51 765.46 C 713.34 771.95 714.44 779.03 715.08 786.04 C 716.29 802.27 716.37 818.66 714.28 834.82 C 713.22 841.56 711.66 848.73 707.02 854.00 C 702.59 858.78 696.10 860.84 689.83 861.86 C 682.31 863.19 674.67 863.94 667.03 863.90 C 655.64 863.85 644.18 864.37 632.89 862.60 C 625.97 861.63 618.63 860.42 613.02 855.94 C 608.55 852.30 606.24 846.73 604.96 841.26 C 602.72 831.69 602.39 821.81 602.09 812.03 C 602.04 798.63 602.10 785.06 605.20 771.95 C 606.71 765.86 609.86 759.64 615.56 756.52 C 623.16 752.33 632.01 751.61 640.48 750.76 Z" />
<path fill="#ffffff" opacity="1.00" d=" M 774.48 750.76 C 783.62 749.95 792.81 749.95 801.98 750.18 C 811.74 750.66 821.62 751.24 831.03 754.10 C 836.80 755.81 841.99 759.86 844.49 765.42 C 846.52 770.09 847.70 775.09 848.40 780.12 C 850.14 793.99 850.19 808.03 849.51 821.97 C 848.83 831.46 848.23 841.34 843.85 849.98 C 840.76 856.04 834.32 859.59 827.88 861.02 C 811.52 864.80 794.61 863.99 777.97 863.71 C 768.53 862.88 758.61 862.39 750.05 857.97 C 742.04 853.78 739.20 844.40 737.92 836.08 C 735.58 819.88 735.69 803.40 736.81 787.10 C 738.00 777.19 738.75 765.82 746.58 758.61 C 754.43 752.42 764.92 751.79 774.48 750.76 Z" />
<path fill="#ffffff" opacity="1.00" d=" M 1062.50 750.76 C 1077.59 749.61 1092.83 749.74 1107.85 751.66 C 1114.88 752.86 1122.53 754.03 1127.93 759.13 C 1133.39 764.13 1134.91 771.78 1136.20 778.75 C 1138.25 793.72 1138.21 808.91 1137.40 823.97 C 1136.67 832.78 1135.96 841.94 1131.87 849.95 C 1129.04 855.52 1123.33 859.03 1117.45 860.62 C 1101.63 864.69 1085.17 863.95 1068.99 863.83 C 1059.95 863.43 1050.77 862.62 1042.13 859.83 C 1035.77 857.79 1030.63 852.70 1028.51 846.38 C 1024.77 835.68 1024.56 824.18 1024.11 812.97 C 1024.01 799.26 1024.03 785.37 1027.19 771.96 C 1028.71 765.84 1031.88 759.61 1037.62 756.49 C 1045.21 752.32 1054.04 751.61 1062.50 750.76 Z" />
</svg>
